<svg width="22" height="21" viewBox="0 0 22 21" fill="none" xmlns="http://www.w3.org/2000/svg">
<path d="M4.95062 21.0003H0.596875V6.97995H4.95062V21.0003ZM2.77141 5.06745C1.37922 5.06745 0.25 3.91433 0.25 2.52214C0.25 1.85342 0.515647 1.21209 0.988503 0.739235C1.46136 0.26638 2.10269 0.000732422 2.77141 0.000732422C3.44012 0.000732422 4.08145 0.26638 4.55431 0.739235C5.02716 1.21209 5.29281 1.85342 5.29281 2.52214C5.29281 3.91433 4.16313 5.06745 2.77141 5.06745ZM21.2453 21.0003H16.9009V14.1753C16.9009 12.5487 16.8681 10.4628 14.6373 10.4628C12.3737 10.4628 12.0269 12.2299 12.0269 14.0581V21.0003H7.67781V6.97995H11.8534V8.89245H11.9144C12.4956 7.79089 13.9155 6.62839 16.0338 6.62839C20.44 6.62839 21.25 9.52995 21.25 13.2987V21.0003H21.2453Z" fill="#E1DAFF"/>
</svg>
