<svg width="25" height="20" viewBox="0 0 25 20" fill="none" xmlns="http://www.w3.org/2000/svg">
<path d="M21.783 5.11163C21.7982 5.32482 21.7982 5.53805 21.7982 5.75124C21.7982 12.2537 16.849 19.7461 7.8033 19.7461C5.01648 19.7461 2.42767 18.939 0.25 17.538C0.645953 17.5837 1.02662 17.5989 1.43781 17.5989C3.73727 17.5989 5.85405 16.8223 7.54441 15.4974C5.38197 15.4517 3.56978 14.0355 2.94541 12.0863C3.25 12.1319 3.55455 12.1624 3.87437 12.1624C4.31598 12.1624 4.75764 12.1014 5.16878 11.9949C2.91498 11.538 1.22458 9.55833 1.22458 7.16747V7.10658C1.87937 7.47207 2.64086 7.70049 3.44791 7.73091C2.12303 6.84764 1.25505 5.34005 1.25505 3.63446C1.25505 2.72077 1.49866 1.88321 1.92508 1.15224C4.34641 4.137 7.98602 6.08621 12.0672 6.29944C11.9911 5.93396 11.9454 5.55328 11.9454 5.17257C11.9454 2.46188 14.1383 0.253784 16.8641 0.253784C18.2804 0.253784 19.5595 0.847691 20.458 1.80708C21.5697 1.59389 22.6357 1.18271 23.5799 0.619269C23.2143 1.76142 22.4377 2.72082 21.4174 3.32991C22.4073 3.22336 23.3667 2.94919 24.2499 2.56852C23.58 3.5431 22.7424 4.41108 21.783 5.11163Z" fill="#E1DAFF"/>
</svg>
